<svg id="svg" version="1.1" width="48" height="48" xmlns="http://www.w3.org/2000/svg" xmlns:xlink="http://www.w3.org/1999/xlink" style="display: block;"><g id="svgg"><path id="path0" d="M191.555 0.911 C 191.246 1.411,187.057 2.133,182.246 2.515 C 177.436 2.896,166.849 4.521,158.721 6.124 C 144.097 9.009,141.180 9.859,128.703 14.875 C 127.165 15.494,125.027 16.000,123.953 16.000 C 122.879 16.000,122.000 16.450,122.000 17.000 C 122.000 17.550,121.100 18.000,120.000 18.000 C 118.900 18.000,118.000 18.340,118.000 18.756 C 118.000 19.172,116.537 20.109,114.750 20.840 C 110.138 22.724,106.583 24.414,106.000 24.998 C 105.514 25.486,104.717 25.953,97.113 30.211 C 92.344 32.881,87.582 36.234,87.167 37.214 C 86.983 37.646,86.308 38.001,85.667 38.001 C 85.025 38.002,83.150 39.177,81.500 40.613 C 79.850 42.049,76.925 44.393,75.000 45.823 C 70.463 49.192,49.192 70.463,45.823 75.000 C 44.393 76.925,42.049 79.850,40.613 81.500 C 39.177 83.150,38.002 84.856,38.001 85.292 C 38.001 85.727,37.172 86.972,36.160 88.059 C 35.148 89.145,33.686 91.264,32.912 92.767 C 32.137 94.270,31.277 95.725,31.002 96.000 C 30.014 96.985,26.866 102.533,26.322 104.250 C 26.016 105.213,25.369 106.000,24.883 106.000 C 24.398 106.000,24.000 106.632,24.000 107.405 C 24.000 109.071,19.830 117.353,18.750 117.833 C 18.338 118.017,18.000 119.029,18.000 120.083 C 18.000 121.137,17.550 122.000,17.000 122.000 C 16.450 122.000,16.000 122.879,16.000 123.953 C 16.000 125.027,15.494 127.165,14.875 128.703 C 14.257 130.241,13.384 132.400,12.936 133.500 C 8.788 143.680,3.723 167.633,2.413 183.264 C 2.055 187.535,1.366 191.274,0.881 191.573 C 0.382 191.882,0.000 237.189,0.000 296.059 L 0.000 400.000 22.500 400.000 L 45.000 400.000 45.009 297.750 C 45.017 195.837,45.480 178.668,48.544 166.500 C 52.743 149.829,64.499 121.000,67.098 121.000 C 67.594 121.000,68.000 120.519,68.000 119.930 C 68.000 118.663,74.023 109.649,75.192 109.167 C 75.636 108.983,76.000 108.389,76.000 107.845 C 76.000 107.302,76.562 106.263,77.250 105.537 C 77.938 104.811,80.075 102.318,82.000 99.997 C 86.480 94.595,94.595 86.480,99.997 82.000 C 102.318 80.075,104.811 77.938,105.537 77.250 C 106.263 76.562,107.302 76.000,107.845 76.000 C 108.389 76.000,108.983 75.636,109.167 75.192 C 109.649 74.023,118.663 68.000,119.930 68.000 C 120.519 68.000,121.000 67.610,121.000 67.132 C 121.000 64.493,149.054 53.007,166.373 48.555 C 187.063 43.237,223.939 44.630,244.414 51.503 C 248.505 52.876,252.448 54.011,253.176 54.025 C 253.904 54.039,258.095 55.839,262.489 58.025 C 266.883 60.211,271.008 62.000,271.656 62.000 C 272.303 62.000,272.983 62.337,273.167 62.750 C 273.584 63.689,278.910 66.936,281.250 67.678 C 282.212 67.984,283.000 68.631,283.000 69.117 C 283.000 69.602,283.590 70.000,284.311 70.000 C 285.033 70.000,286.495 70.806,287.561 71.791 C 288.628 72.777,291.654 75.060,294.288 76.865 C 296.921 78.671,299.617 81.015,300.278 82.074 C 300.940 83.133,301.905 84.000,302.423 84.000 C 303.797 84.000,319.682 100.728,323.316 106.000 C 325.021 108.475,327.223 111.372,328.209 112.439 C 329.194 113.505,330.000 114.967,330.000 115.689 C 330.000 116.410,330.450 117.000,331.000 117.000 C 331.550 117.000,332.000 117.481,332.000 118.070 C 332.000 118.658,333.350 121.102,335.000 123.500 C 336.650 125.898,338.000 128.225,338.000 128.671 C 338.000 129.117,339.587 132.694,341.527 136.620 C 356.528 166.980,359.244 213.193,348.013 247.000 C 343.866 259.484,336.796 275.068,333.751 278.439 C 332.788 279.505,332.000 280.774,332.000 281.258 C 332.000 283.085,325.914 291.315,316.213 302.608 C 307.051 313.274,284.780 332.000,281.258 332.000 C 280.774 332.000,279.505 332.788,278.439 333.751 C 276.582 335.429,274.277 336.633,261.972 342.358 C 238.730 353.171,206.972 357.216,177.500 353.116 C 168.823 351.910,151.825 346.894,149.250 344.781 C 147.802 343.593,147.421 279.461,148.848 277.211 C 149.576 276.064,156.747 278.741,159.000 281.002 C 159.903 281.907,164.426 283.846,168.500 285.072 C 170.700 285.735,173.400 286.623,174.500 287.046 C 183.596 290.542,210.541 291.996,217.500 289.366 C 219.150 288.742,222.525 287.686,225.000 287.019 C 227.475 286.351,230.281 285.399,231.236 284.903 C 232.191 284.406,233.660 284.000,234.500 284.000 C 235.978 284.000,239.980 282.103,241.000 280.920 C 241.275 280.601,242.963 279.703,244.750 278.926 C 246.538 278.148,248.000 277.172,248.000 276.756 C 248.000 276.340,248.563 275.998,249.250 275.996 C 251.699 275.990,266.000 262.900,271.000 256.089 C 272.375 254.216,273.950 252.175,274.500 251.553 C 275.673 250.227,277.542 247.055,280.425 241.500 C 281.566 239.300,282.770 237.275,283.101 237.000 C 283.432 236.725,283.963 235.375,284.281 234.000 C 284.600 232.625,285.303 229.925,285.844 228.000 C 289.846 213.749,290.135 211.908,290.165 200.446 C 290.183 193.816,289.669 186.391,289.023 183.946 C 286.148 173.061,283.685 165.310,282.366 163.000 C 281.582 161.625,280.172 158.813,279.234 156.750 C 278.296 154.687,277.184 153.000,276.764 153.000 C 276.344 153.000,275.992 152.438,275.982 151.750 C 275.926 147.913,252.087 124.074,248.250 124.018 C 247.563 124.008,247.000 123.656,247.000 123.236 C 247.000 122.816,245.313 121.704,243.250 120.766 C 241.188 119.828,238.375 118.427,237.000 117.654 C 234.190 116.072,232.705 115.621,215.384 111.079 C 213.120 110.486,206.145 110.016,199.884 110.036 C 189.417 110.068,184.616 110.800,173.000 114.135 C 171.075 114.687,168.375 115.397,167.000 115.712 C 165.625 116.027,163.375 117.028,162.000 117.937 C 160.625 118.845,157.250 120.691,154.500 122.039 C 151.750 123.386,148.899 125.060,148.163 125.759 C 147.428 126.458,145.258 128.227,143.340 129.690 C 139.130 132.901,132.079 139.972,128.855 144.217 C 127.560 145.922,126.022 147.808,125.439 148.408 C 124.855 149.009,123.732 150.963,122.944 152.750 C 122.156 154.537,121.256 156.000,120.943 156.000 C 120.629 156.000,119.755 157.575,119.000 159.500 C 118.245 161.425,117.312 163.000,116.927 163.000 C 116.542 163.000,115.992 164.238,115.704 165.750 C 115.416 167.263,113.929 172.550,112.398 177.500 L 109.616 186.500 109.274 293.250 L 108.931 400.000 161.407 400.000 C 192.333 400.000,214.116 399.622,214.452 399.078 C 214.765 398.572,218.054 397.875,221.761 397.530 C 233.044 396.479,259.272 390.761,263.998 388.320 C 265.372 387.611,268.972 386.258,271.998 385.314 C 275.024 384.370,279.908 382.338,282.852 380.799 C 285.795 379.259,288.832 378.000,289.602 378.000 C 290.371 378.000,291.000 377.550,291.000 377.000 C 291.000 376.450,291.706 376.000,292.570 376.000 C 293.433 376.000,296.102 374.650,298.500 373.000 C 300.898 371.350,303.342 370.000,303.930 370.000 C 304.519 370.000,305.000 369.550,305.000 369.000 C 305.000 368.450,305.590 368.000,306.311 368.000 C 307.033 368.000,308.495 367.208,309.561 366.241 C 310.628 365.274,315.100 361.900,319.500 358.743 C 332.968 349.082,351.762 330.096,360.324 317.500 C 362.567 314.200,365.212 310.628,366.201 309.561 C 367.191 308.495,368.000 307.033,368.000 306.311 C 368.000 305.590,368.450 305.000,369.000 305.000 C 369.550 305.000,370.000 304.519,370.000 303.930 C 370.000 303.342,371.350 300.898,373.000 298.500 C 374.650 296.102,376.000 293.433,376.000 292.570 C 376.000 291.706,376.450 291.000,377.000 291.000 C 377.550 291.000,378.000 290.371,378.000 289.602 C 378.000 288.832,379.241 285.795,380.759 282.852 C 382.276 279.908,384.106 275.700,384.825 273.500 C 386.058 269.728,386.656 268.171,388.954 262.750 C 391.207 257.434,396.615 231.588,397.530 221.761 C 397.875 218.054,398.572 214.765,399.078 214.452 C 400.287 213.704,400.278 186.684,399.068 185.450 C 398.556 184.928,397.679 180.675,397.119 176.000 C 395.665 163.864,391.459 144.236,388.956 137.906 C 387.781 134.933,386.158 130.475,385.351 128.000 C 383.608 122.657,373.856 102.645,372.762 102.167 C 372.343 101.983,372.000 101.196,372.000 100.417 C 372.000 99.638,371.660 99.000,371.244 99.000 C 370.828 99.000,369.852 97.538,369.074 95.750 C 368.297 93.963,367.365 92.275,367.005 92.000 C 366.645 91.725,364.359 88.659,361.925 85.187 C 359.491 81.716,356.471 77.441,355.213 75.687 C 348.564 66.419,325.999 45.503,313.500 37.024 C 310.750 35.158,308.275 33.377,308.000 33.064 C 307.725 32.752,306.150 31.839,304.500 31.034 C 302.850 30.230,300.375 28.821,299.000 27.903 C 294.202 24.700,288.928 22.000,287.470 22.000 C 286.661 22.000,286.000 21.550,286.000 21.000 C 286.000 20.450,285.100 20.000,284.000 20.000 C 282.900 20.000,282.000 19.550,282.000 19.000 C 282.000 18.450,281.100 18.000,280.000 18.000 C 278.900 18.000,278.000 17.601,278.000 17.113 C 278.000 16.626,276.762 16.008,275.250 15.740 C 273.738 15.472,268.675 13.830,264.000 12.090 C 254.021 8.376,230.198 3.428,217.754 2.484 C 212.943 2.120,208.754 1.411,208.445 0.911 C 207.711 -0.277,192.289 -0.277,191.555 0.911 " stroke="none" fill="#000000" fill-rule="evenodd"></path></g></svg>
